<?xml version="1.0" encoding="UTF-8"?>
<svg id="Layer_1" xmlns="http://www.w3.org/2000/svg" version="1.1" viewBox="0 0 1417.32 432.08">
  <!-- Generator: Adobe Illustrator 29.3.1, SVG Export Plug-In . SVG Version: 2.1.0 Build 151)  -->
  <path d="M280.61,315H112.75l-36.9,102.38H7.02L164.81,0h63.78l157.76,417.38h-68.8l-36.93-102.38ZM132.91,259.05h127.55l-63.78-177.36-63.77,177.36Z"/>
  <path d="M692.29,384.93c0,27.41-13.98,38.05-35.23,38.05h-30.78v-33.02c-21.25,29.66-49.79,38.61-80,38.61-69.38,0-121.4-36.36-121.4-118.04V110.78h66.01v198.06c0,42.53,32.45,57.07,67.13,57.07,47,0,68.26-26.3,68.26-69.93V110.78h66.01v274.15Z"/>
  <path d="M832.65,397.79v2.24c0,12.86-12.87,22.94-27.99,22.94h-38.02V0h66.01v138.75c20.13-21.81,54.82-33.56,89.51-33.56,81.12,0,140.99,57.07,140.99,158.89s-52.03,164.49-140.99,164.49c-31.33,0-69.38-9.5-89.51-30.77ZM996.01,264.07c0-64.89-30.21-102.94-80-102.94s-83.36,33.56-83.36,97.35v15.11c0,69.38,39.71,99.02,82.78,99.02,52.03,0,80.57-44.75,80.57-108.54Z"/>
  <path d="M1382.3,360.87l11.77,26.86c-24.64,22.93-81.69,40.83-123.1,40.83-100.7,0-165.05-59.85-165.05-154.97s57.08-168.41,155.54-168.41,148.83,78.33,148.83,153.3c0,7.83,0,20.71-2.24,32.45h-233.88c4.48,55.39,54.27,81.68,99.03,81.68,27.42,0,48.13-6.71,76.09-20.69,14.53-7.28,28.55-1.68,33,8.94ZM1346.5,236.1c-2.78-35.25-30.75-74.97-86.14-74.97-50.91,0-80,40.28-82.82,74.97h168.96Z"/>
</svg>